<?xml version="1.0" standalone="no"?>
<!DOCTYPE svg PUBLIC "-//W3C//DTD SVG 20010904//EN"
 "http://www.w3.org/TR/2001/REC-SVG-20010904/DTD/svg10.dtd">
<svg version="1.0" xmlns="http://www.w3.org/2000/svg"
 width="400.000000pt" height="400.000000pt" viewBox="0 0 400.000000 400.000000"
 preserveAspectRatio="xMidYMid meet">
<metadata>
Created by potrace 1.15, written by Peter Selinger 2001-2017
</metadata>
<g transform="translate(0.000000,400.000000) scale(0.100000,-0.100000)"
fill="#000000" stroke="none">
<path d="M1720 3874 c-716 -109 -1303 -602 -1530 -1284 -71 -215 -85 -311 -85
-590 0 -279 14 -375 85 -590 229 -687 819 -1179 1541 -1285 140 -20 418 -20
558 0 722 106 1312 598 1541 1285 71 215 85 311 85 590 0 279 -14 375 -85 590
-229 687 -819 1179 -1541 1285 -135 19 -437 19 -569 -1z m-210 -855 c22 -30
22 -30 6 -142 -9 -62 -19 -124 -22 -139 l-6 -28 -383 0 -384 0 -5 -32 c-3 -18
-8 -116 -12 -217 -6 -177 -5 -184 12 -177 97 38 248 53 359 36 255 -38 471
-220 552 -464 23 -71 27 -97 27 -211 0 -114 -3 -140 -27 -210 -15 -44 -40
-103 -56 -130 -91 -158 -279 -288 -487 -336 -81 -19 -114 -21 -237 -16 -152 5
-244 25 -336 72 -122 62 -160 190 -76 263 80 71 176 50 321 -68 102 -84 146
-105 219 -104 138 3 250 94 323 267 25 57 27 73 27 202 0 137 -1 142 -32 207
-112 237 -400 308 -633 157 -67 -43 -71 -43 -124 -4 -19 15 -19 21 3 532 13
285 25 521 28 525 2 5 186 8 408 8 394 0 405 1 415 20 8 15 21 20 55 20 37 0
47 -4 65 -31z m1974 -71 c3 -29 10 -136 16 -237 11 -183 11 -184 -11 -207 -18
-19 -33 -24 -71 -24 -53 0 -47 -9 -68 102 -6 32 -25 85 -42 119 -49 98 -50 99
-420 99 l-308 0 0 -335 0 -335 274 0 274 0 31 25 c30 26 48 80 54 165 2 34 3
35 51 38 39 3 53 -1 72 -19 l24 -22 0 -296 c0 -289 0 -295 -22 -318 -17 -18
-32 -23 -70 -23 -53 0 -51 -3 -63 95 -10 71 -32 120 -63 136 -20 11 -92 15
-294 17 l-268 3 0 -345 c0 -328 1 -347 19 -365 29 -29 83 -33 382 -29 l274 3
56 28 c76 37 122 111 170 275 l12 43 50 -3 c40 -2 54 -8 68 -28 17 -24 17 -33
-7 -260 -13 -129 -27 -241 -29 -247 -3 -10 -181 -13 -842 -13 l-837 0 -23 22
c-30 28 -31 78 0 105 18 17 40 21 127 26 126 6 183 25 208 71 16 28 17 92 17
776 0 674 -2 749 -17 782 -25 56 -55 70 -161 75 -74 4 -96 9 -114 26 -30 26
-30 73 -1 104 l21 23 763 0 763 0 5 -52z"/>
</g>
</svg>
